<?xml version="1.0" encoding="utf-8"?>
<!-- Generator: Adobe Illustrator 26.0.3, SVG Export Plug-In . SVG Version: 6.00 Build 0)  -->
<svg version="1.1" id="Layer_1" xmlns="http://www.w3.org/2000/svg" xmlns:xlink="http://www.w3.org/1999/xlink" x="0px" y="0px"
	 viewBox="0 0 3240 3240" style="enable-background:new 0 0 3240 3240;" xml:space="preserve">
<style type="text/css">
	.st0{fill:#FFFFFF;}
</style>
<g>
	<path class="st0" d="M0,1620.1C0,1080.1,0,540,0,0c1080,0,2160,0,3240,0c0,540,0,1080.1,0,1620.1c-4.7,0.1-9.3,0.3-14,0.3
		c-167,0-334.1,0-501.1,0c-4.1,0-8.2,0-13.3,0c1.6,1.4,2.1,2,2.6,2.2c2.8,0.8,5.6,1.5,8.3,2.1c49.8,11.8,93.6,34.6,129.4,71.7
		c39,40.5,60.4,89.7,70.5,144.3c2.1,11.6,3.5,23.3,5.3,35.7c-50.3,0-99,0-148.6,0c-0.5-3.9-1-7.4-1.4-10.9
		c-2.1-18.3-5.9-36.2-12.6-53.4c-13.3-34-37.7-55.3-72.8-64.7c-21.8-5.8-44-7.5-66.4-6c-49.2,3.3-85.9,26.3-108,71
		c-4,8-7.4,16.4-10.4,24.9c-10.9,31.6-15.6,64.3-16.8,97.5c-1.1,31.6-0.9,63.3-0.9,95c0,28.8,2,57.5,7.1,86
		c4.6,25.6,11.4,50.5,24.3,73.4c17.2,30.5,42.8,50.1,77.1,57.5c33,7.2,65.8,5.6,98.1-4.1c32.5-9.6,55-30.5,67.7-61.8
		c4-9.9,6.8-20.5,9.2-30.9c2.3-10,3.5-20.3,5.2-30.3c49.6,0,98.4,0,148.6,0c-2.4,15.8-3.9,30.8-7,45.4
		c-21.3,99.6-80.7,165.1-177.6,195.7c-52.3,16.5-106.2,18.6-160.3,10.6c-65.6-9.7-120.4-39.5-163.2-90.7
		c-33.9-40.6-55.1-87.5-66.7-138.8c-5.2-23-8.5-46.4-12.6-69.6c-0.2,0-0.4,0-0.6-0.1c0,100.3,0,200.7,0,301.6c-73,0-145.2,0-217.5,0
		c-1.9-3.9-3.6-7.4-5.3-11c-40.1-85.3-80.4-170.5-120.2-255.9c-3.3-7-7.1-9.3-14.6-9.2c-31,0.4-61.9,0.2-92.9,0.2
		c-3.1,0-6.3,0.4-10.4,0.6c0,92.1,0,183.4,0,275.2c-48.1,0-95.1,0-143.3,0c0-5.2,0-9.8,0-14.3c0.4-267.5,0.8-534.9,1.1-802.4
		c0.2-141.5,0-283,0-424.4c0-4,0.2-8.1,0.4-12.1c3.8,2.9,5.8,5.8,7.6,8.8c96.6,158.5,193.4,317,289.7,475.8
		c7.2,11.8,14.2,21,29.3,20.2c2.4-0.1,4.9,0.9,7.4,1.4c48.4,9.7,91.7,29.2,125.9,66c1,1.1,2.5,1.8,5.2,3.7c0-281.9,0-562.1,0-842.7
		c-52.5,0-104.4,0-157.3,0c0,28.4,0,56.1,0,83.7c0,27.7,0,55.4,0,83.2c0,27.7,0,55.4,0,83.2c0,28.1,0,56.2,0,84.2
		c0,27.7,0.1,55.4,0,83.2c-0.2,27.4,0.7,54.8-1.5,82.3c-3.2-3-5.3-6.2-7.3-9.5c-30-49.2-59.9-98.3-89.9-147.5
		c-68-111.5-136-223.1-203.8-334.7c-3.7-6.2-7.5-9.1-15.2-9c-46.1,0.4-92.2,0.2-138.2,0.2c-3.4,0-6.8,0.4-11,0.7
		c0,5.7,0,10.3,0,14.9c0,216,0,432,0,648c0,33.5,0.7,66.9,1,100.4c0.1,15.8,0.4,31.7,0,47.5c-0.2,6.7,1.7,11.3,6.9,15.8
		c19,16.7,32.9,37.1,42.2,60.6c15.1,38.5,18.7,78.4,11.9,118.9c-9,53.7-37.5,94.2-86.3,119.6c-3.1,1.6-6.1,3.3-10.6,5.6
		c4.2,1.7,7.1,2.9,10,4c47.7,16.7,80.4,49.1,95.8,96.9c18.9,59,14,117.5-11.6,173.6c-21,46-58.6,74.7-104.8,92.8
		c-38.7,15.2-79.3,21-120.5,21.3c-92.9,0.6-185.7,0.2-278.6,0.1c-10.7,0-21.4-0.9-32-1.4c-20.3-52-40.2-103.2-60.3-154.7
		c-105.3,0-209.6,0-314.9,0c-19.9,51.3-39.8,102.8-59.5,153.6c-64.2,0-127,0-191.5,0c15-34.8,29.5-68.4,43.9-102
		c14.5-33.7,29.1-67.4,43.6-101.1c14.4-33.5,29.2-66.7,43.3-101.1c-45.8,0-89.8,0-134.8,0c0,102.5,0,204.3,0,306.7
		c-50.8,0-100.7,0-151.2,0c0-251,0-501.8,0-753.7c10.8,0,21.1,0,31.5,0c10.4,0,20.9,0,31.3,0c10.1,0,20.2,0,30.2,0
		c10.4,0,20.9,0.1,31.3,0c10.2-0.1,20.6,0.6,30.8-0.5c0.2-3.6,0.5-5.7,0.4-7.9c-0.6-79.2-0.7-158.4-1.9-237.6c-0.6-41-3.3-82-5-123
		c-2.7-61.5-5.4-123-8-184.5c-0.1-2.6,0.3-5.2,0.4-7.8c0.6,0,1.2-0.1,1.8-0.1c67.7,187.1,135.4,374.3,202.8,560.8
		c37.5,0,73.4,0,109.8,0c68-187.7,135.9-375.2,203.8-562.6c1.9,4,2.1,7.4,1.9,10.9c-1.4,34.5-2.9,69-4.4,103.6
		c-1.8,39.6-3.7,79.1-5.4,118.7c-1.8,41.4-4.3,82.7-4.8,124.1c-0.8,64.8-0.2,129.6-0.3,194.4c0,7,1.3,13.3,4.1,19.8
		c50,115.2,99.8,230.4,149.6,345.7c1.2,2.8,2.8,5.4,5,9.7c0-377.9,0-753.8,0-1130c-69.9,0-138.9,0-208.1,0
		c-65,184.6-129.9,368.7-194.7,552.8c-0.6,0-1.3,0.1-1.9,0.1c-65.4-184.5-130.7-369-195.9-553c-69.6,0-137.9,0-207.5,0
		c0,32.5,0,64.4,0,96.3c0,31.7,0,63.4,0,95c0,32,0,64.1,0,96.1s0,64.1,0,96.1s0,64.1,0,96.1c0,31.7,0,63.4,0,95
		c0,32,0.1,64.1,0,96.1c-0.1,31.8,0.6,63.7-0.5,96.1c-4.9,0-8.5,0-12,0c-97.9,0-195.8,0-293.7,0C6.5,1620.4,3.2,1620.2,0,1620.1z
		 M2340.2,852.9c0,356.8,0,711.7,0,1068.8c1.3-7.9,2.4-13.5,3.1-19.2c4.3-35.9,12.5-70.8,26.3-104.3
		c44.1-107.3,122.4-169.8,239.2-180.9c11.8-1.1,23.9-0.3,35.5-2.2c58.9-10,112.5-32.7,158.7-71c74.3-61.8,111.5-143.3,121.2-237.8
		c3.5-33.9,2.5-68.3,2.6-102.4c0.1-32.5-4.8-64.6-13.2-96c-18.1-67.7-51-126.7-104.3-172.9c-64.2-55.7-139.9-81.2-224.2-81.9
		c-77.7-0.7-155.5-0.1-233.2-0.1C2348.4,852.9,2344.9,852.9,2340.2,852.9z M1273,1618.8c52.5,0,104.5,0,156.9,0
		c0-254.7,0-509.7,0-765.2c-52.6,0-104.5,0-156.9,0C1273,1108.6,1273,1363,1273,1618.8z M1879.2,1971.8c3.1,0.2,5.2,0.4,7.3,0.4
		c36,0,71.9,0.1,107.9-0.2c8.6-0.1,17.2-0.8,25.8-2.1c41.7-6.1,71.7-33.2,81.8-74c6.6-26.7,6-53.6-1.8-79.9
		c-10.8-36.2-34.5-59.3-72-66.4c-13.7-2.6-27.8-3.6-41.8-3.8c-32-0.5-64-0.2-96-0.2c-3.5,0-7,0.3-11.2,0.5
		C1879.2,1821.4,1879.2,1896,1879.2,1971.8z M471,1940c63.7,0,126.2,0,189.4,0c27.8-64.3,55.5-128.5,83.3-193
		c-13.2-2.2-264.7-1.8-272.7,0.3C471,1811.1,471,1875,471,1940z M1273.6,2045.9c0,67.4,0,134.4,0,201.9c3.1,0.3,5.5,0.7,7.9,0.7
		c40.6,0,81.3,0.2,121.9-0.3c11.4-0.2,23-1.7,34.2-4.2c39.3-8.8,65.3-35.7,71.3-74.5c3.3-21.5,2-43.1-4.6-64
		c-9.1-28.7-28.3-47.2-57.1-55c-10.3-2.8-21.2-4.7-31.8-4.8c-44.9-0.6-89.9-0.5-134.9-0.5C1278.3,2045,1276.3,2045.5,1273.6,2045.9z
		 M1273.5,1934.6c2.8,0.3,4.2,0.5,5.6,0.5c33.8,0,67.7,0.3,101.5-0.1c20.5-0.3,40.9-2.6,60.3-10.1c27.6-10.7,44.9-30.3,50.9-59.5
		c3.6-17.5,3.1-35.1-0.3-52.6c-6.1-31.8-25.2-51.7-56-60.7c-16-4.7-32.3-7-49-7c-34.5-0.2-69.1-0.2-103.6-0.3
		c-3.1,0-6.2,0.5-9.5,0.8C1273.5,1808.9,1273.5,1871.3,1273.5,1934.6z M991.5,2091.1c-36.4-93.7-72.3-186-108.1-278.3
		c-37.5,92.4-73.5,184.6-109,278.3C847.3,2091.1,918.5,2091.1,991.5,2091.1z M2125.9,2058.8c24.8,50.9,49.1,101,73.5,151.1
		c2.1-2.1,2.6-3.8,2.6-5.4c0-65,0-130.1,0-195.1c0-1.8-1-3.6-1.8-6.6C2179,2027.2,2154.1,2044.6,2125.9,2058.8z"/>
	<path d="M0,1620.1c3.2,0.1,6.5,0.3,9.7,0.3c97.9,0,195.8,0,293.7,0c3.6,0,7.1,0,12,0c1.1-32.4,0.4-64.3,0.5-96.1
		c0.1-32,0-64.1,0-96.1c0-31.7,0-63.4,0-95c0-32,0-64.1,0-96.1s0-64.1,0-96.1s0-64.1,0-96.1c0-31.7,0-63.4,0-95
		c0-31.9,0-63.9,0-96.3c69.6,0,137.9,0,207.5,0c65.2,184,130.5,368.5,195.9,553c0.6,0,1.3-0.1,1.9-0.1
		c64.9-184.1,129.7-368.3,194.7-552.8c69.3,0,138.2,0,208.1,0c0,376.2,0,752.1,0,1130c-2.2-4.3-3.8-6.9-5-9.7
		c-49.9-115.2-99.7-230.5-149.6-345.7c-2.8-6.4-4.1-12.8-4.1-19.8c0.1-64.8-0.5-129.6,0.3-194.4c0.5-41.4,3.1-82.7,4.8-124.1
		c1.7-39.6,3.7-79.1,5.4-118.7c1.5-34.5,3-69,4.4-103.6c0.1-3.5,0-6.9-1.9-10.9c-67.9,187.4-135.8,374.9-203.8,562.6
		c-36.4,0-72.3,0-109.8,0c-67.5-186.6-135.2-373.7-202.8-560.8c-0.6,0-1.2,0.1-1.8,0.1c-0.2,2.6-0.5,5.2-0.4,7.8
		c2.6,61.5,5.3,123,8,184.5c1.8,41,4.4,82,5,123c1.2,79.2,1.4,158.4,1.9,237.6c0,2.1-0.2,4.3-0.4,7.9c-10.2,1.1-20.5,0.4-30.8,0.5
		c-10.4,0.1-20.9,0-31.3,0c-10.1,0-20.2,0-30.2,0c-10.4,0-20.9,0-31.3,0c-10.4,0-20.8,0-31.5,0c0,251.9,0,502.7,0,753.7
		c50.5,0,100.4,0,151.2,0c0-102.4,0-204.2,0-306.7c45,0,89.1,0,134.8,0c-14.1,34.3-28.9,67.6-43.3,101.1
		c-14.5,33.7-29.1,67.4-43.6,101.1c-14.5,33.6-28.9,67.2-43.9,102c64.4,0,127.2,0,191.5,0c19.7-50.8,39.6-102.3,59.5-153.6
		c105.2,0,209.5,0,314.9,0c20.1,51.5,40,102.6,60.3,154.7c10.6,0.5,21.3,1.4,32,1.4c92.9,0.1,185.7,0.5,278.6-0.1
		c41.2-0.3,81.8-6.1,120.5-21.3c46.2-18.1,83.9-46.8,104.8-92.8c25.6-56.1,30.5-114.7,11.6-173.6c-15.3-47.8-48-80.2-95.8-96.9
		c-2.9-1-5.7-2.3-10-4c4.5-2.4,7.6-4,10.6-5.6c48.8-25.4,77.3-65.8,86.3-119.6c6.8-40.4,3.2-80.4-11.9-118.9
		c-9.2-23.5-23.2-43.9-42.2-60.6c-5.2-4.5-7.1-9.1-6.9-15.8c0.4-15.8,0.2-31.7,0-47.5c-0.3-33.5-0.9-66.9-1-100.4
		c-0.1-216,0-432,0-648c0-4.6,0-9.3,0-14.9c4.2-0.3,7.6-0.7,11-0.7c46.1,0,92.2,0.2,138.2-0.2c7.6-0.1,11.4,2.8,15.2,9
		c67.8,111.7,135.8,223.2,203.8,334.7c30,49.2,59.9,98.4,89.9,147.5c2,3.3,4.2,6.4,7.3,9.5c2.3-27.5,1.4-54.9,1.5-82.3
		c0.2-27.7,0-55.4,0-83.2c0-28.1,0-56.2,0-84.2c0-27.7,0-55.4,0-83.2s0-55.4,0-83.2c0-27.7,0-55.3,0-83.7c52.9,0,104.9,0,157.3,0
		c0,280.6,0,560.8,0,842.7c-2.6-1.8-4.1-2.5-5.2-3.7c-34.2-36.8-77.4-56.4-125.9-66c-2.5-0.5-5-1.5-7.4-1.3
		c-15.1,0.8-22.1-8.4-29.3-20.2c-96.3-158.8-193-317.2-289.7-475.8c-1.8-3-3.8-5.9-7.6-8.8c-0.1,4-0.4,8.1-0.4,12.1
		c0,141.5,0.1,283,0,424.4c-0.3,267.5-0.7,534.9-1.1,802.4c0,4.6,0,9.2,0,14.3c48.2,0,95.2,0,143.3,0c0-91.8,0-183.1,0-275.2
		c4.2-0.3,7.3-0.6,10.4-0.6c31,0,61.9,0.2,92.9-0.2c7.5-0.1,11.3,2.2,14.6,9.2c39.9,85.4,80.1,170.6,120.2,255.9
		c1.7,3.6,3.4,7.1,5.3,11c72.3,0,144.5,0,217.5,0c0-100.9,0-201.2,0-301.6c0.2,0,0.4,0,0.6,0.1c4.1,23.2,7.4,46.6,12.6,69.6
		c11.6,51.2,32.7,98.1,66.7,138.8c42.7,51.2,97.6,81.1,163.2,90.7c54,8,108,5.9,160.3-10.6c97-30.6,156.3-96.2,177.6-195.7
		c3.1-14.7,4.6-29.7,7-45.4c-50.2,0-99,0-148.6,0c-1.7,10-2.8,20.3-5.2,30.3c-2.4,10.5-5.2,21-9.2,30.9
		c-12.6,31.3-35.2,52.1-67.7,61.8c-32.3,9.6-65.2,11.2-98.1,4.1c-34.3-7.5-59.9-27-77.1-57.5c-12.9-22.9-19.7-47.8-24.3-73.4
		c-5.1-28.4-7.1-57.1-7.1-86c0-31.7-0.3-63.4,0.9-95c1.2-33.2,5.8-65.9,16.8-97.5c2.9-8.5,6.4-16.8,10.4-24.9
		c22.1-44.7,58.8-67.7,108-71c22.4-1.5,44.6,0.2,66.4,6c35.1,9.4,59.5,30.7,72.8,64.7c6.7,17.2,10.5,35.1,12.6,53.4
		c0.4,3.5,0.9,7,1.4,10.9c49.5,0,98.3,0,148.6,0c-1.8-12.5-3.1-24.2-5.3-35.7c-10.1-54.6-31.5-103.8-70.5-144.3
		c-35.8-37.1-79.6-59.9-129.4-71.7c-2.8-0.7-5.6-1.3-8.3-2.1c-0.6-0.2-1-0.8-2.6-2.2c5.2,0,9.2,0,13.3,0c167,0,334.1,0,501.1,0
		c4.7,0,9.3-0.2,14-0.3c0,539.9,0,1079.9,0,1620c-1080,0-2160,0-3240,0C0,2700,0,2160,0,1620.1z"/>
	<path d="M2340.2,852.9c4.7,0,8.2,0,11.8,0c77.7,0,155.5-0.5,233.2,0.1c84.2,0.7,160,26.2,224.2,81.9
		c53.3,46.3,86.2,105.3,104.3,172.9c8.4,31.4,13.3,63.4,13.2,96c-0.1,34.2,0.8,68.5-2.6,102.4c-9.7,94.5-46.8,176.1-121.2,237.8
		c-46.1,38.3-99.7,61-158.7,71c-11.6,2-23.7,1.1-35.5,2.2c-116.9,11.1-195.1,73.6-239.2,180.9c-13.8,33.4-22,68.4-26.3,104.3
		c-0.7,5.7-1.8,11.3-3.1,19.2C2340.2,1564.6,2340.2,1209.7,2340.2,852.9z M2499.2,1492.4c33.9,0,66.7,2,99.2-0.4
		c68-5.1,116.4-39.7,144.2-102.3c12.9-28.9,19.5-59.4,22-90.8c3.4-42,3.4-84.1-0.1-126.1c-2.7-32.4-9.5-64-23.3-93.7
		c-27.1-58.3-73.3-90.6-136.8-96c-33.6-2.9-67.5-1.6-101.3-2.1c-1.3,0-2.6,0.8-4,1.2C2499.2,1152.3,2499.2,1322.1,2499.2,1492.4z"/>
	<path d="M1273,1618.8c0-255.9,0-510.2,0-765.2c52.4,0,104.3,0,156.9,0c0,255.5,0,510.6,0,765.2
		C1377.5,1618.8,1325.6,1618.8,1273,1618.8z"/>
	<path d="M1879.2,1971.8c0-75.8,0-150.4,0-225.7c4.2-0.2,7.7-0.5,11.2-0.5c32,0,64-0.4,96,0.2c14,0.2,28.1,1.2,41.8,3.8
		c37.5,7.1,61.2,30.2,72,66.4c7.9,26.4,8.4,53.2,1.8,79.9c-10.1,40.9-40.1,68-81.8,74c-8.5,1.2-17.2,2-25.8,2.1
		c-36,0.3-71.9,0.2-107.9,0.2C1884.5,1972.2,1882.4,1971.9,1879.2,1971.8z"/>
	<path d="M471,1940c0-64.9,0-128.8,0-192.7c8-2.1,259.5-2.5,272.7-0.3c-27.8,64.5-55.5,128.7-83.3,193
		C597.2,1940,534.7,1940,471,1940z"/>
	<path d="M1273.6,2045.9c2.7-0.3,4.8-0.8,6.8-0.8c45,0.1,89.9-0.1,134.9,0.5c10.6,0.2,21.5,2,31.8,4.8c28.8,7.9,48.1,26.3,57.1,55
		c6.6,21,7.9,42.6,4.6,64c-5.9,38.8-31.9,65.7-71.3,74.5c-11.2,2.5-22.7,4-34.2,4.2c-40.6,0.5-81.3,0.3-121.9,0.3
		c-2.4,0-4.9-0.4-7.9-0.7C1273.6,2180.3,1273.6,2113.3,1273.6,2045.9z"/>
	<path d="M1273.5,1934.6c0-63.2,0-125.7,0-189c3.4-0.3,6.5-0.8,9.5-0.8c34.5,0,69.1,0.1,103.6,0.3c16.6,0.1,33,2.4,49,7
		c30.8,9,49.9,28.9,56,60.7c3.4,17.5,3.9,35.1,0.3,52.6c-6,29.2-23.3,48.7-50.9,59.5c-19.4,7.5-39.8,9.8-60.3,10.1
		c-33.8,0.5-67.7,0.2-101.5,0.1C1277.8,1935.1,1276.3,1934.8,1273.5,1934.6z"/>
	<path d="M991.5,2091.1c-73,0-144.1,0-217.1,0c35.6-93.7,71.5-185.9,109-278.3C919.2,1905,955.1,1997.3,991.5,2091.1z"/>
	<path d="M2125.9,2058.8c28.3-14.2,53.1-31.7,74.3-56.1c0.8,2.9,1.8,4.8,1.8,6.6c0.1,65,0.1,130.1,0,195.1c0,1.6-0.5,3.3-2.6,5.4
		C2175,2159.8,2150.6,2109.8,2125.9,2058.8z"/>
	<path class="st0" d="M2499.2,1492.4c0-170.3,0-340,0-510.1c1.4-0.4,2.7-1.2,4-1.2c33.8,0.5,67.7-0.8,101.3,2.1
		c63.5,5.5,109.7,37.7,136.8,96c13.8,29.7,20.6,61.3,23.3,93.7c3.5,42,3.5,84.1,0.1,126.1c-2.6,31.4-9.2,61.9-22,90.8
		c-27.8,62.5-76.3,97.2-144.2,102.3C2565.9,1494.4,2533.1,1492.4,2499.2,1492.4z"/>
</g>
</svg>
